#!OML:ASF H:\LiuWeirdWalks\Patient Classification 1\Patient 1\Session 1\male.ASF
:FULLY-SPECIFIED
:DEGREES
734
root 2.39144 17.9208 26.8582 1.32402 3.87893 -3.86496
lowerback 14.9293 -2.547 -13.9819
upperback 2.18004 -5.80804 -3.88716
thorax -5.04802 -2.61031 4.71005
lowerneck -18.1647 2.84262 8.43063
upperneck 19.3979 0.569814 4.1536
head 9.18749 1.3577 0.12676
rclavicle 5.60573e-014 -6.36111e-015
rhumerus -15.8207 -26.9971 -0.456952
rradius 33.6203
rwrist -14.7182
rhand -26.2808 -5.13252
rfingers 7.12502
rthumb 0.274497 -35.1121
lclavicle 5.60573e-014 -6.36111e-015
lhumerus -40.5921 37.9564 21.3531
lradius 39.5167
lwrist 11.1178
lhand -20.4821 -2.92351
lfingers 7.12502
lthumb 5.87441 26.9751
rfemur -28.8766 -6.69226 16.3183
rtibia 28.5073
rfoot -3.39179 -22.1
rtoes -4.99832
lfemur 1.24081 -6.11537 -11.9276
ltibia 20.6417
lfoot -11.0267 20.6918
ltoes -8.79749
735
root 2.38375 17.9124 26.9525 1.35087 3.91472 -3.51787
lowerback 14.8197 -2.5913 -13.8305
upperback 2.15861 -5.81642 -3.72421
thorax -5.00639 -2.61943 4.79659
lowerneck -18.1975 2.83072 8.42679
upperneck 19.4591 0.621027 3.83029
head 9.21316 1.34786 0.0233687
rclavicle -6.63941e-014 -8.26944e-014
rhumerus -15.8458 -27.0657 -0.662753
rradius 33.5261
rwrist -14.292
rhand -25.9956 -5.2836
rfingers 7.12502
rthumb 0.55001 -35.2626
lclavicle -6.63941e-014 -8.26944e-014
lhumerus -40.4192 37.8404 21.1351
lradius 39.5877
lwrist 11.1188
lhand -20.4619 -2.929
lfingers 7.12502
lthumb 5.89389 26.969
rfemur -28.7842 -6.46247 15.669
rtibia 27.0252
rfoot -3.02892 -21.6339
rtoes -5.3937
lfemur 1.79326 -5.90451 -12.264
ltibia 20.177
lfoot -10.9227 20.5162
ltoes -9.08232
736
root 2.37491 17.9026 27.0486 1.37166 3.98709 -3.16956
lowerback 14.7126 -2.64142 -13.6702
upperback 2.13925 -5.83123 -3.55381
thorax -4.96278 -2.63201 4.88701
lowerneck -18.2294 2.81079 8.40806
upperneck 19.5129 0.670982 3.48741
head 9.23586 1.33366 -0.0847938
rclavicle 8.70677e-014 4.13472e-014
rhumerus -15.872 -27.1186 -0.8562
rradius 33.4368
rwrist -13.8971
rhand -25.7291 -5.41146
rfingers 7.12502
rthumb 0.807385 -35.3897
lclavicle 8.70677e-014 4.13472e-014
lhumerus -40.2431 37.7166 20.9577
lradius 39.6734
lwrist 11.1728
lhand -20.4631 -2.8894
lfingers 7.12502
lthumb 5.89274 27.0087
rfemur -28.6206 -6.21558 15.0022
rtibia 25.5659
rfoot -2.77276 -21.2329
rtoes -5.80819
lfemur 2.34246 -5.72336 -12.5944
ltibia 19.73
lfoot -10.82 20.3337
ltoes -9.39285
737
root 2.36486 17.8914 27.1466 1.38475 4.0952 -2.82215
lowerback 14.6085 -2.69654 -13.5005
upperback 2.12187 -5.85139 -3.375
thorax -4.91767 -2.64749 4.98191
lowerneck -18.2518 2.782 8.37215
upperneck 19.5505 0.720426 3.12577
head 9.25104 1.31497 -0.197138
rclavicle -1.74931e-014 6.67916e-014
rhumerus -15.8966 -27.1559 -1.03615
rradius 33.3505
rwrist -13.5443
rhand -25.4897 -5.48988
rfingers 7.12502
rthumb 1.03859 -35.4671
lclavicle -1.74931e-014 6.67916e-014
lhumerus -40.0637 37.5869 20.8223
lradius 39.7666
lwrist 11.2574
lhand -20.4789 -2.8285
lfingers 7.12502
lthumb 5.87747 27.07
rfemur -28.395 -5.9611 14.3259
rtibia 24.1661
rfoot -2.60936 -20.9053
rtoes -6.24181
lfemur 2.87677 -5.57818 -12.9174
ltibia 19.3287
lfoot -10.7297 20.1528
ltoes -9.72743
738
root 2.35331 17.879 27.2462 1.39213 4.23358 -2.48386
lowerback 14.5051 -2.75448 -13.3152
upperback 2.10616 -5.87278 -3.1864
thorax -4.87137 -2.66394 5.07864
lowerneck -18.2647 2.74402 8.31923
upperneck 19.5661 0.768681 2.74666
head 9.25662 1.29149 -0.313302
rclavicle -2.54444e-014 3.18055e-015
rhumerus -15.9264 -27.1819 -1.19916
rradius 33.2702
rwrist -13.2301
rhand -25.2772 -5.49232
rfingers 7.12502
rthumb 1.24385 -35.4684
lclavicle -2.54444e-014 3.18055e-015
lhumerus -39.8723 37.4522 20.7324
lradius 39.8564
lwrist 11.3481
lhand -20.5034 -2.76436
lfingers 7.12502
lthumb 5.85379 27.1348
rfemur -28.1181 -5.69974 13.6577
rtibia 22.8516
rfoot -2.51503 -20.6638
rtoes -6.68886
lfemur 3.38652 -5.46713 -13.2228
ltibia 18.987
lfoot -10.6519 19.9772
ltoes -10.0876
